<?xml version="1.0" encoding="UTF-8" standalone="no"?>
<!DOCTYPE svg PUBLIC "-//W3C//DTD SVG 1.1//EN"
 "http://www.w3.org/Graphics/SVG/1.1/DTD/svg11.dtd">
<!-- Generated by graphviz version 2.28.0 (20131030.2054)
 -->
<!-- Title: controllers_diagram Pages: 1 -->
<svg width="1227pt" height="1285pt"
 viewBox="0.00 0.00 1226.66 1285.26" xmlns="http://www.w3.org/2000/svg" xmlns:xlink="http://www.w3.org/1999/xlink">
<g id="graph1" class="graph" transform="scale(1 1) rotate(0) translate(4 1281.26)">
<title>controllers_diagram</title>
<polygon fill="white" stroke="white" points="-4,5 -4,-1281.26 1223.66,-1281.26 1223.66,5 -4,5"/>
<!-- _diagram_info -->
<g id="node1" class="node"><title>_diagram_info</title>
<text text-anchor="start" x="977.834" y="-166" font-family="Times,serif" font-size="13.00">Controllers diagram</text>
<text text-anchor="start" x="977.834" y="-150.4" font-family="Times,serif" font-size="13.00">Date: Oct 30 2013 &#45; 22:00</text>
<text text-anchor="start" x="977.834" y="-134.8" font-family="Times,serif" font-size="13.00">Migration version: 20131021172108</text>
<text text-anchor="start" x="977.834" y="-119.2" font-family="Times,serif" font-size="13.00">Generated by RailRoady 1.1.1</text>
<text text-anchor="start" x="977.834" y="-103.6" font-family="Times,serif" font-size="13.00">http://railroady.prestonlee.com</text>
</g>
<!-- ApplicationController -->
<g id="node2" class="node"><title>ApplicationController</title>
<polyline fill="none" stroke="black" points="537.681,-547.432 653.323,-547.432 "/>
<path fill="none" stroke="black" d="M653.323,-547.432C659.323,-547.432 665.323,-553.432 665.323,-559.432"/>
<polyline fill="none" stroke="black" points="665.323,-559.432 665.323,-734.632 "/>
<path fill="none" stroke="black" d="M665.323,-734.632C665.323,-740.632 659.323,-746.632 653.323,-746.632"/>
<polyline fill="none" stroke="black" points="653.323,-746.632 537.681,-746.632 "/>
<path fill="none" stroke="black" d="M537.681,-746.632C531.681,-746.632 525.681,-740.632 525.681,-734.632"/>
<polyline fill="none" stroke="black" points="525.681,-734.632 525.681,-559.432 "/>
<path fill="none" stroke="black" d="M525.681,-559.432C525.681,-553.432 531.681,-547.432 537.681,-547.432"/>
<text text-anchor="middle" x="595.502" y="-728.632" font-family="Times,serif" font-size="14.00">ApplicationController</text>
<polyline fill="none" stroke="black" points="525.681,-721.832 665.323,-721.832 "/>
<text text-anchor="start" x="533.681" y="-703.832" font-family="Times,serif" font-size="14.00">authUser</text>
<text text-anchor="start" x="533.681" y="-687.032" font-family="Times,serif" font-size="14.00">currentUser</text>
<text text-anchor="start" x="533.681" y="-670.232" font-family="Times,serif" font-size="14.00">genFaviconTags</text>
<text text-anchor="start" x="533.681" y="-653.432" font-family="Times,serif" font-size="14.00">genSocialMediaTags</text>
<text text-anchor="start" x="533.681" y="-636.632" font-family="Times,serif" font-size="14.00">gravatarUrl</text>
<text text-anchor="start" x="533.681" y="-619.832" font-family="Times,serif" font-size="14.00">initial</text>
<text text-anchor="start" x="533.681" y="-603.032" font-family="Times,serif" font-size="14.00">pageTitle</text>
<polyline fill="none" stroke="black" points="525.681,-596.232 665.323,-596.232 "/>
<polyline fill="none" stroke="black" points="525.681,-572.232 665.323,-572.232 "/>
<text text-anchor="start" x="533.681" y="-554.232" font-family="Times,serif" font-size="14.00">_layout</text>
</g>
<!-- CategoriesController -->
<g id="node3" class="node"><title>CategoriesController</title>
<polyline fill="none" stroke="black" points="980.559,-750.871 1089.97,-750.871 "/>
<path fill="none" stroke="black" d="M1089.97,-750.871C1095.97,-750.871 1101.97,-756.871 1101.97,-762.871"/>
<polyline fill="none" stroke="black" points="1101.97,-762.871 1101.97,-954.871 "/>
<path fill="none" stroke="black" d="M1101.97,-954.871C1101.97,-960.871 1095.97,-966.871 1089.97,-966.871"/>
<polyline fill="none" stroke="black" points="1089.97,-966.871 980.559,-966.871 "/>
<path fill="none" stroke="black" d="M980.559,-966.871C974.559,-966.871 968.559,-960.871 968.559,-954.871"/>
<polyline fill="none" stroke="black" points="968.559,-954.871 968.559,-762.871 "/>
<path fill="none" stroke="black" d="M968.559,-762.871C968.559,-756.871 974.559,-750.871 980.559,-750.871"/>
<text text-anchor="middle" x="1035.27" y="-948.871" font-family="Times,serif" font-size="14.00">CategoriesController</text>
<polyline fill="none" stroke="black" points="968.559,-942.071 1101.97,-942.071 "/>
<text text-anchor="start" x="976.559" y="-924.071" font-family="Times,serif" font-size="14.00">category_params</text>
<text text-anchor="start" x="976.559" y="-907.271" font-family="Times,serif" font-size="14.00">create</text>
<text text-anchor="start" x="976.559" y="-890.471" font-family="Times,serif" font-size="14.00">destroy</text>
<text text-anchor="start" x="976.559" y="-873.671" font-family="Times,serif" font-size="14.00">edit</text>
<text text-anchor="start" x="976.559" y="-856.871" font-family="Times,serif" font-size="14.00">index</text>
<text text-anchor="start" x="976.559" y="-840.071" font-family="Times,serif" font-size="14.00">new</text>
<text text-anchor="start" x="976.559" y="-823.271" font-family="Times,serif" font-size="14.00">show</text>
<text text-anchor="start" x="976.559" y="-806.471" font-family="Times,serif" font-size="14.00">update</text>
<polyline fill="none" stroke="black" points="968.559,-799.671 1101.97,-799.671 "/>
<polyline fill="none" stroke="black" points="968.559,-775.671 1101.97,-775.671 "/>
<text text-anchor="start" x="976.559" y="-757.671" font-family="Times,serif" font-size="14.00">_layout</text>
</g>
<!-- ApplicationController&#45;&gt;CategoriesController -->
<g id="edge2" class="edge"><title>ApplicationController&#45;&gt;CategoriesController</title>
<path fill="none" stroke="black" d="M665.67,-680.833C748.846,-720.9 886.452,-787.186 968.232,-826.58"/>
</g>
<!-- ClientsController -->
<g id="node4" class="node"><title>ClientsController</title>
<polyline fill="none" stroke="black" points="384.184,-0.5 473.398,-0.5 "/>
<path fill="none" stroke="black" d="M473.398,-0.5C479.398,-0.5 485.398,-6.5 485.398,-12.5"/>
<polyline fill="none" stroke="black" points="485.398,-12.5 485.398,-137.3 "/>
<path fill="none" stroke="black" d="M485.398,-137.3C485.398,-143.3 479.398,-149.3 473.398,-149.3"/>
<polyline fill="none" stroke="black" points="473.398,-149.3 384.184,-149.3 "/>
<path fill="none" stroke="black" d="M384.184,-149.3C378.184,-149.3 372.184,-143.3 372.184,-137.3"/>
<polyline fill="none" stroke="black" points="372.184,-137.3 372.184,-12.5 "/>
<path fill="none" stroke="black" d="M372.184,-12.5C372.184,-6.5 378.184,-0.5 384.184,-0.5"/>
<text text-anchor="middle" x="428.791" y="-131.3" font-family="Times,serif" font-size="14.00">ClientsController</text>
<polyline fill="none" stroke="black" points="372.184,-124.5 485.398,-124.5 "/>
<text text-anchor="start" x="380.184" y="-106.5" font-family="Times,serif" font-size="14.00">edit</text>
<text text-anchor="start" x="380.184" y="-89.7" font-family="Times,serif" font-size="14.00">index</text>
<text text-anchor="start" x="380.184" y="-72.9" font-family="Times,serif" font-size="14.00">new</text>
<text text-anchor="start" x="380.184" y="-56.1" font-family="Times,serif" font-size="14.00">show</text>
<polyline fill="none" stroke="black" points="372.184,-49.3 485.398,-49.3 "/>
<polyline fill="none" stroke="black" points="372.184,-25.3 485.398,-25.3 "/>
<text text-anchor="start" x="380.184" y="-7.3" font-family="Times,serif" font-size="14.00">_layout</text>
</g>
<!-- ApplicationController&#45;&gt;ClientsController -->
<g id="edge4" class="edge"><title>ApplicationController&#45;&gt;ClientsController</title>
<path fill="none" stroke="black" d="M535.294,-547.358C502.896,-488.511 465.693,-411.328 446.261,-337.668 429.904,-275.667 426.226,-202.733 426.244,-149.454"/>
</g>
<!-- ImagesController -->
<g id="node5" class="node"><title>ImagesController</title>
<polyline fill="none" stroke="black" points="257.617,-1028.11 347.59,-1028.11 "/>
<path fill="none" stroke="black" d="M347.59,-1028.11C353.59,-1028.11 359.59,-1034.11 359.59,-1040.11"/>
<polyline fill="none" stroke="black" points="359.59,-1040.11 359.59,-1164.91 "/>
<path fill="none" stroke="black" d="M359.59,-1164.91C359.59,-1170.91 353.59,-1176.91 347.59,-1176.91"/>
<polyline fill="none" stroke="black" points="347.59,-1176.91 257.617,-1176.91 "/>
<path fill="none" stroke="black" d="M257.617,-1176.91C251.617,-1176.91 245.617,-1170.91 245.617,-1164.91"/>
<polyline fill="none" stroke="black" points="245.617,-1164.91 245.617,-1040.11 "/>
<path fill="none" stroke="black" d="M245.617,-1040.11C245.617,-1034.11 251.617,-1028.11 257.617,-1028.11"/>
<text text-anchor="middle" x="302.604" y="-1158.91" font-family="Times,serif" font-size="14.00">ImagesController</text>
<polyline fill="none" stroke="black" points="245.617,-1152.11 359.59,-1152.11 "/>
<text text-anchor="start" x="253.617" y="-1134.11" font-family="Times,serif" font-size="14.00">create</text>
<text text-anchor="start" x="253.617" y="-1117.31" font-family="Times,serif" font-size="14.00">destroy</text>
<text text-anchor="start" x="253.617" y="-1100.51" font-family="Times,serif" font-size="14.00">image_params</text>
<text text-anchor="start" x="253.617" y="-1083.71" font-family="Times,serif" font-size="14.00">update</text>
<polyline fill="none" stroke="black" points="245.617,-1076.91 359.59,-1076.91 "/>
<polyline fill="none" stroke="black" points="245.617,-1052.91 359.59,-1052.91 "/>
<text text-anchor="start" x="253.617" y="-1034.91" font-family="Times,serif" font-size="14.00">_layout</text>
</g>
<!-- ApplicationController&#45;&gt;ImagesController -->
<g id="edge6" class="edge"><title>ApplicationController&#45;&gt;ImagesController</title>
<path fill="none" stroke="black" d="M531.405,-746.707C476.94,-831.404 399.96,-951.114 350.659,-1027.78"/>
</g>
<!-- NetworksController -->
<g id="node6" class="node"><title>NetworksController</title>
<polyline fill="none" stroke="black" points="671.012,-983.436 774.991,-983.436 "/>
<path fill="none" stroke="black" d="M774.991,-983.436C780.991,-983.436 786.991,-989.436 786.991,-995.436"/>
<polyline fill="none" stroke="black" points="786.991,-995.436 786.991,-1170.64 "/>
<path fill="none" stroke="black" d="M786.991,-1170.64C786.991,-1176.64 780.991,-1182.64 774.991,-1182.64"/>
<polyline fill="none" stroke="black" points="774.991,-1182.64 671.012,-1182.64 "/>
<path fill="none" stroke="black" d="M671.012,-1182.64C665.012,-1182.64 659.012,-1176.64 659.012,-1170.64"/>
<polyline fill="none" stroke="black" points="659.012,-1170.64 659.012,-995.436 "/>
<path fill="none" stroke="black" d="M659.012,-995.436C659.012,-989.436 665.012,-983.436 671.012,-983.436"/>
<text text-anchor="middle" x="723.001" y="-1164.64" font-family="Times,serif" font-size="14.00">NetworksController</text>
<polyline fill="none" stroke="black" points="659.012,-1157.84 786.991,-1157.84 "/>
<text text-anchor="start" x="667.012" y="-1139.84" font-family="Times,serif" font-size="14.00">create</text>
<text text-anchor="start" x="667.012" y="-1123.04" font-family="Times,serif" font-size="14.00">destroy</text>
<text text-anchor="start" x="667.012" y="-1106.24" font-family="Times,serif" font-size="14.00">edit</text>
<text text-anchor="start" x="667.012" y="-1089.44" font-family="Times,serif" font-size="14.00">index</text>
<text text-anchor="start" x="667.012" y="-1072.64" font-family="Times,serif" font-size="14.00">network_params</text>
<text text-anchor="start" x="667.012" y="-1055.84" font-family="Times,serif" font-size="14.00">new</text>
<text text-anchor="start" x="667.012" y="-1039.04" font-family="Times,serif" font-size="14.00">update</text>
<polyline fill="none" stroke="black" points="659.012,-1032.24 786.991,-1032.24 "/>
<polyline fill="none" stroke="black" points="659.012,-1008.24 786.991,-1008.24 "/>
<text text-anchor="start" x="667.012" y="-990.236" font-family="Times,serif" font-size="14.00">_layout</text>
</g>
<!-- ApplicationController&#45;&gt;NetworksController -->
<g id="edge8" class="edge"><title>ApplicationController&#45;&gt;NetworksController</title>
<path fill="none" stroke="black" d="M624.673,-746.787C645.402,-817.674 673.126,-912.479 693.851,-983.35"/>
</g>
<!-- OrdersController -->
<g id="node7" class="node"><title>OrdersController</title>
<polyline fill="none" stroke="black" points="131.145,-845.778 218.787,-845.778 "/>
<path fill="none" stroke="black" d="M218.787,-845.778C224.787,-845.778 230.787,-851.778 230.787,-857.778"/>
<polyline fill="none" stroke="black" points="230.787,-857.778 230.787,-982.578 "/>
<path fill="none" stroke="black" d="M230.787,-982.578C230.787,-988.578 224.787,-994.578 218.787,-994.578"/>
<polyline fill="none" stroke="black" points="218.787,-994.578 131.145,-994.578 "/>
<path fill="none" stroke="black" d="M131.145,-994.578C125.145,-994.578 119.145,-988.578 119.145,-982.578"/>
<polyline fill="none" stroke="black" points="119.145,-982.578 119.145,-857.778 "/>
<path fill="none" stroke="black" d="M119.145,-857.778C119.145,-851.778 125.145,-845.778 131.145,-845.778"/>
<text text-anchor="middle" x="174.966" y="-976.578" font-family="Times,serif" font-size="14.00">OrdersController</text>
<polyline fill="none" stroke="black" points="119.145,-969.778 230.787,-969.778 "/>
<text text-anchor="start" x="127.145" y="-951.778" font-family="Times,serif" font-size="14.00">edit</text>
<text text-anchor="start" x="127.145" y="-934.978" font-family="Times,serif" font-size="14.00">index</text>
<text text-anchor="start" x="127.145" y="-918.178" font-family="Times,serif" font-size="14.00">new</text>
<text text-anchor="start" x="127.145" y="-901.378" font-family="Times,serif" font-size="14.00">show</text>
<polyline fill="none" stroke="black" points="119.145,-894.578 230.787,-894.578 "/>
<polyline fill="none" stroke="black" points="119.145,-870.578 230.787,-870.578 "/>
<text text-anchor="start" x="127.145" y="-852.578" font-family="Times,serif" font-size="14.00">_layout</text>
</g>
<!-- ApplicationController&#45;&gt;OrdersController -->
<g id="edge10" class="edge"><title>ApplicationController&#45;&gt;OrdersController</title>
<path fill="none" stroke="black" d="M525.587,-692.443C442.908,-746.145 306.947,-834.454 230.907,-883.843"/>
</g>
<!-- PagesController -->
<g id="node8" class="node"><title>PagesController</title>
<polyline fill="none" stroke="black" points="31.3963,-379.042 113.603,-379.042 "/>
<path fill="none" stroke="black" d="M113.603,-379.042C119.603,-379.042 125.603,-385.042 125.603,-391.042"/>
<polyline fill="none" stroke="black" points="125.603,-391.042 125.603,-599.842 "/>
<path fill="none" stroke="black" d="M125.603,-599.842C125.603,-605.842 119.603,-611.842 113.603,-611.842"/>
<polyline fill="none" stroke="black" points="113.603,-611.842 31.3963,-611.842 "/>
<path fill="none" stroke="black" d="M31.3963,-611.842C25.3963,-611.842 19.3963,-605.842 19.3963,-599.842"/>
<polyline fill="none" stroke="black" points="19.3963,-599.842 19.3963,-391.042 "/>
<path fill="none" stroke="black" d="M19.3963,-391.042C19.3963,-385.042 25.3963,-379.042 31.3963,-379.042"/>
<text text-anchor="middle" x="72.4998" y="-593.842" font-family="Times,serif" font-size="14.00">PagesController</text>
<polyline fill="none" stroke="black" points="19.3963,-587.042 125.603,-587.042 "/>
<text text-anchor="start" x="27.3963" y="-569.042" font-family="Times,serif" font-size="14.00">create</text>
<text text-anchor="start" x="27.3963" y="-552.242" font-family="Times,serif" font-size="14.00">destroy</text>
<text text-anchor="start" x="27.3963" y="-535.442" font-family="Times,serif" font-size="14.00">edit</text>
<text text-anchor="start" x="27.3963" y="-518.642" font-family="Times,serif" font-size="14.00">index</text>
<text text-anchor="start" x="27.3963" y="-501.842" font-family="Times,serif" font-size="14.00">new</text>
<text text-anchor="start" x="27.3963" y="-485.042" font-family="Times,serif" font-size="14.00">page_params</text>
<text text-anchor="start" x="27.3963" y="-468.242" font-family="Times,serif" font-size="14.00">show</text>
<text text-anchor="start" x="27.3963" y="-451.442" font-family="Times,serif" font-size="14.00">unpublished</text>
<text text-anchor="start" x="27.3963" y="-434.642" font-family="Times,serif" font-size="14.00">update</text>
<polyline fill="none" stroke="black" points="19.3963,-427.842 125.603,-427.842 "/>
<polyline fill="none" stroke="black" points="19.3963,-403.842 125.603,-403.842 "/>
<text text-anchor="start" x="27.3963" y="-385.842" font-family="Times,serif" font-size="14.00">_layout</text>
</g>
<!-- ApplicationController&#45;&gt;PagesController -->
<g id="edge12" class="edge"><title>ApplicationController&#45;&gt;PagesController</title>
<path fill="none" stroke="black" d="M525.51,-626.746C419.599,-596.048 220.912,-538.459 125.839,-510.902"/>
</g>
<!-- PartsController -->
<g id="node9" class="node"><title>PartsController</title>
<polyline fill="none" stroke="black" points="1075.25,-335.582 1152.8,-335.582 "/>
<path fill="none" stroke="black" d="M1152.8,-335.582C1158.8,-335.582 1164.8,-341.582 1164.8,-347.582"/>
<polyline fill="none" stroke="black" points="1164.8,-347.582 1164.8,-472.382 "/>
<path fill="none" stroke="black" d="M1164.8,-472.382C1164.8,-478.382 1158.8,-484.382 1152.8,-484.382"/>
<polyline fill="none" stroke="black" points="1152.8,-484.382 1075.25,-484.382 "/>
<path fill="none" stroke="black" d="M1075.25,-484.382C1069.25,-484.382 1063.25,-478.382 1063.25,-472.382"/>
<polyline fill="none" stroke="black" points="1063.25,-472.382 1063.25,-347.582 "/>
<path fill="none" stroke="black" d="M1063.25,-347.582C1063.25,-341.582 1069.25,-335.582 1075.25,-335.582"/>
<text text-anchor="middle" x="1114.03" y="-466.382" font-family="Times,serif" font-size="14.00">PartsController</text>
<polyline fill="none" stroke="black" points="1063.25,-459.582 1164.8,-459.582 "/>
<text text-anchor="start" x="1071.25" y="-441.582" font-family="Times,serif" font-size="14.00">edit</text>
<text text-anchor="start" x="1071.25" y="-424.782" font-family="Times,serif" font-size="14.00">index</text>
<text text-anchor="start" x="1071.25" y="-407.982" font-family="Times,serif" font-size="14.00">new</text>
<text text-anchor="start" x="1071.25" y="-391.182" font-family="Times,serif" font-size="14.00">show</text>
<polyline fill="none" stroke="black" points="1063.25,-384.382 1164.8,-384.382 "/>
<polyline fill="none" stroke="black" points="1063.25,-360.382 1164.8,-360.382 "/>
<text text-anchor="start" x="1071.25" y="-342.382" font-family="Times,serif" font-size="14.00">_layout</text>
</g>
<!-- ApplicationController&#45;&gt;PartsController -->
<g id="edge14" class="edge"><title>ApplicationController&#45;&gt;PartsController</title>
<path fill="none" stroke="black" d="M665.432,-615.063C771.307,-566.661 969.805,-475.915 1063.11,-433.26"/>
</g>
<!-- ProceduresController -->
<g id="node10" class="node"><title>ProceduresController</title>
<polyline fill="none" stroke="black" points="133.923,-217.509 245.669,-217.509 "/>
<path fill="none" stroke="black" d="M245.669,-217.509C251.669,-217.509 257.669,-223.509 257.669,-229.509"/>
<polyline fill="none" stroke="black" points="257.669,-229.509 257.669,-354.309 "/>
<path fill="none" stroke="black" d="M257.669,-354.309C257.669,-360.309 251.669,-366.309 245.669,-366.309"/>
<polyline fill="none" stroke="black" points="245.669,-366.309 133.923,-366.309 "/>
<path fill="none" stroke="black" d="M133.923,-366.309C127.923,-366.309 121.923,-360.309 121.923,-354.309"/>
<polyline fill="none" stroke="black" points="121.923,-354.309 121.923,-229.509 "/>
<path fill="none" stroke="black" d="M121.923,-229.509C121.923,-223.509 127.923,-217.509 133.923,-217.509"/>
<text text-anchor="middle" x="189.796" y="-348.309" font-family="Times,serif" font-size="14.00">ProceduresController</text>
<polyline fill="none" stroke="black" points="121.923,-341.509 257.669,-341.509 "/>
<text text-anchor="start" x="129.923" y="-323.509" font-family="Times,serif" font-size="14.00">edit</text>
<text text-anchor="start" x="129.923" y="-306.709" font-family="Times,serif" font-size="14.00">index</text>
<text text-anchor="start" x="129.923" y="-289.909" font-family="Times,serif" font-size="14.00">new</text>
<text text-anchor="start" x="129.923" y="-273.109" font-family="Times,serif" font-size="14.00">show</text>
<polyline fill="none" stroke="black" points="121.923,-266.309 257.669,-266.309 "/>
<polyline fill="none" stroke="black" points="121.923,-242.309 257.669,-242.309 "/>
<text text-anchor="start" x="129.923" y="-224.309" font-family="Times,serif" font-size="14.00">_layout</text>
</g>
<!-- ApplicationController&#45;&gt;ProceduresController -->
<g id="edge16" class="edge"><title>ApplicationController&#45;&gt;ProceduresController</title>
<path fill="none" stroke="black" d="M525.296,-585.58C450.228,-519.871 332.001,-416.384 257.792,-351.428"/>
</g>
<!-- RolesController -->
<g id="node11" class="node"><title>RolesController</title>
<polyline fill="none" stroke="black" points="756.904,-36.425 838.339,-36.425 "/>
<path fill="none" stroke="black" d="M838.339,-36.425C844.339,-36.425 850.339,-42.425 850.339,-48.425"/>
<polyline fill="none" stroke="black" points="850.339,-48.425 850.339,-156.425 "/>
<path fill="none" stroke="black" d="M850.339,-156.425C850.339,-162.425 844.339,-168.425 838.339,-168.425"/>
<polyline fill="none" stroke="black" points="838.339,-168.425 756.904,-168.425 "/>
<path fill="none" stroke="black" d="M756.904,-168.425C750.904,-168.425 744.904,-162.425 744.904,-156.425"/>
<polyline fill="none" stroke="black" points="744.904,-156.425 744.904,-48.425 "/>
<path fill="none" stroke="black" d="M744.904,-48.425C744.904,-42.425 750.904,-36.425 756.904,-36.425"/>
<text text-anchor="middle" x="797.622" y="-150.425" font-family="Times,serif" font-size="14.00">RolesController</text>
<polyline fill="none" stroke="black" points="744.904,-143.625 850.339,-143.625 "/>
<text text-anchor="start" x="752.904" y="-125.625" font-family="Times,serif" font-size="14.00">edit</text>
<text text-anchor="start" x="752.904" y="-108.825" font-family="Times,serif" font-size="14.00">index</text>
<text text-anchor="start" x="752.904" y="-92.025" font-family="Times,serif" font-size="14.00">new</text>
<polyline fill="none" stroke="black" points="744.904,-85.225 850.339,-85.225 "/>
<polyline fill="none" stroke="black" points="744.904,-61.225 850.339,-61.225 "/>
<text text-anchor="start" x="752.904" y="-43.225" font-family="Times,serif" font-size="14.00">_layout</text>
</g>
<!-- ApplicationController&#45;&gt;RolesController -->
<g id="edge18" class="edge"><title>ApplicationController&#45;&gt;RolesController</title>
<path fill="none" stroke="black" d="M632.574,-547.143C673.43,-437.056 737.99,-263.1 773.029,-168.69"/>
</g>
<!-- SessionsController -->
<g id="node12" class="node"><title>SessionsController</title>
<polyline fill="none" stroke="black" points="461.461,-202.468 559.24,-202.468 "/>
<path fill="none" stroke="black" d="M559.24,-202.468C565.24,-202.468 571.24,-208.468 571.24,-214.468"/>
<polyline fill="none" stroke="black" points="571.24,-214.468 571.24,-322.468 "/>
<path fill="none" stroke="black" d="M571.24,-322.468C571.24,-328.468 565.24,-334.468 559.24,-334.468"/>
<polyline fill="none" stroke="black" points="559.24,-334.468 461.461,-334.468 "/>
<path fill="none" stroke="black" d="M461.461,-334.468C455.461,-334.468 449.461,-328.468 449.461,-322.468"/>
<polyline fill="none" stroke="black" points="449.461,-322.468 449.461,-214.468 "/>
<path fill="none" stroke="black" d="M449.461,-214.468C449.461,-208.468 455.461,-202.468 461.461,-202.468"/>
<text text-anchor="middle" x="510.35" y="-316.468" font-family="Times,serif" font-size="14.00">SessionsController</text>
<polyline fill="none" stroke="black" points="449.461,-309.668 571.24,-309.668 "/>
<text text-anchor="start" x="457.461" y="-291.668" font-family="Times,serif" font-size="14.00">create</text>
<text text-anchor="start" x="457.461" y="-274.868" font-family="Times,serif" font-size="14.00">destroy</text>
<text text-anchor="start" x="457.461" y="-258.068" font-family="Times,serif" font-size="14.00">new</text>
<polyline fill="none" stroke="black" points="449.461,-251.268 571.24,-251.268 "/>
<polyline fill="none" stroke="black" points="449.461,-227.268 571.24,-227.268 "/>
<text text-anchor="start" x="457.461" y="-209.268" font-family="Times,serif" font-size="14.00">_layout</text>
</g>
<!-- ApplicationController&#45;&gt;SessionsController -->
<g id="edge20" class="edge"><title>ApplicationController&#45;&gt;SessionsController</title>
<path fill="none" stroke="black" d="M573.018,-547.074C557.916,-479.933 538.437,-393.336 525.234,-334.638"/>
</g>
<!-- SettingsController -->
<g id="node13" class="node"><title>SettingsController</title>
<polyline fill="none" stroke="black" points="11.8345,-648.468 106.497,-648.468 "/>
<path fill="none" stroke="black" d="M106.497,-648.468C112.497,-648.468 118.497,-654.468 118.497,-660.468"/>
<polyline fill="none" stroke="black" points="118.497,-660.468 118.497,-802.068 "/>
<path fill="none" stroke="black" d="M118.497,-802.068C118.497,-808.068 112.497,-814.068 106.497,-814.068"/>
<polyline fill="none" stroke="black" points="106.497,-814.068 11.8345,-814.068 "/>
<path fill="none" stroke="black" d="M11.8345,-814.068C5.83447,-814.068 -0.165527,-808.068 -0.165527,-802.068"/>
<polyline fill="none" stroke="black" points="-0.165527,-802.068 -0.165527,-660.468 "/>
<path fill="none" stroke="black" d="M-0.165527,-660.468C-0.165527,-654.468 5.83447,-648.468 11.8345,-648.468"/>
<text text-anchor="middle" x="59.1655" y="-796.068" font-family="Times,serif" font-size="14.00">SettingsController</text>
<polyline fill="none" stroke="black" points="-0.165527,-789.268 118.497,-789.268 "/>
<text text-anchor="start" x="7.83447" y="-771.268" font-family="Times,serif" font-size="14.00">create</text>
<text text-anchor="start" x="7.83447" y="-754.468" font-family="Times,serif" font-size="14.00">destroy</text>
<text text-anchor="start" x="7.83447" y="-737.668" font-family="Times,serif" font-size="14.00">edit</text>
<text text-anchor="start" x="7.83447" y="-720.868" font-family="Times,serif" font-size="14.00">setting_params</text>
<text text-anchor="start" x="7.83447" y="-704.068" font-family="Times,serif" font-size="14.00">update</text>
<polyline fill="none" stroke="black" points="-0.165527,-697.268 118.497,-697.268 "/>
<polyline fill="none" stroke="black" points="-0.165527,-673.268 118.497,-673.268 "/>
<text text-anchor="start" x="7.83447" y="-655.268" font-family="Times,serif" font-size="14.00">_layout</text>
</g>
<!-- ApplicationController&#45;&gt;SettingsController -->
<g id="edge22" class="edge"><title>ApplicationController&#45;&gt;SettingsController</title>
<path fill="none" stroke="black" d="M525.66,-658.001C419.276,-674.71 218.481,-706.246 118.641,-721.927"/>
</g>
<!-- StatementsController -->
<g id="node14" class="node"><title>StatementsController</title>
<polyline fill="none" stroke="black" points="1095.93,-593.071 1206.91,-593.071 "/>
<path fill="none" stroke="black" d="M1206.91,-593.071C1212.91,-593.071 1218.91,-599.071 1218.91,-605.071"/>
<polyline fill="none" stroke="black" points="1218.91,-605.071 1218.91,-729.871 "/>
<path fill="none" stroke="black" d="M1218.91,-729.871C1218.91,-735.871 1212.91,-741.871 1206.91,-741.871"/>
<polyline fill="none" stroke="black" points="1206.91,-741.871 1095.93,-741.871 "/>
<path fill="none" stroke="black" d="M1095.93,-741.871C1089.93,-741.871 1083.93,-735.871 1083.93,-729.871"/>
<polyline fill="none" stroke="black" points="1083.93,-729.871 1083.93,-605.071 "/>
<path fill="none" stroke="black" d="M1083.93,-605.071C1083.93,-599.071 1089.93,-593.071 1095.93,-593.071"/>
<text text-anchor="middle" x="1151.42" y="-723.871" font-family="Times,serif" font-size="14.00">StatementsController</text>
<polyline fill="none" stroke="black" points="1083.93,-717.071 1218.91,-717.071 "/>
<text text-anchor="start" x="1091.93" y="-699.071" font-family="Times,serif" font-size="14.00">edit</text>
<text text-anchor="start" x="1091.93" y="-682.271" font-family="Times,serif" font-size="14.00">index</text>
<text text-anchor="start" x="1091.93" y="-665.471" font-family="Times,serif" font-size="14.00">new</text>
<text text-anchor="start" x="1091.93" y="-648.671" font-family="Times,serif" font-size="14.00">show</text>
<polyline fill="none" stroke="black" points="1083.93,-641.871 1218.91,-641.871 "/>
<polyline fill="none" stroke="black" points="1083.93,-617.871 1218.91,-617.871 "/>
<text text-anchor="start" x="1091.93" y="-599.871" font-family="Times,serif" font-size="14.00">_layout</text>
</g>
<!-- ApplicationController&#45;&gt;StatementsController -->
<g id="edge24" class="edge"><title>ApplicationController&#45;&gt;StatementsController</title>
<path fill="none" stroke="black" d="M665.346,-649.6C772.807,-653.551 977.372,-661.072 1083.6,-664.978"/>
</g>
<!-- UsersController -->
<g id="node15" class="node"><title>UsersController</title>
<polyline fill="none" stroke="black" points="920.728,-982.654 1002.16,-982.654 "/>
<path fill="none" stroke="black" d="M1002.16,-982.654C1008.16,-982.654 1014.16,-988.654 1014.16,-994.654"/>
<polyline fill="none" stroke="black" points="1014.16,-994.654 1014.16,-1186.65 "/>
<path fill="none" stroke="black" d="M1014.16,-1186.65C1014.16,-1192.65 1008.16,-1198.65 1002.16,-1198.65"/>
<polyline fill="none" stroke="black" points="1002.16,-1198.65 920.728,-1198.65 "/>
<path fill="none" stroke="black" d="M920.728,-1198.65C914.728,-1198.65 908.728,-1192.65 908.728,-1186.65"/>
<polyline fill="none" stroke="black" points="908.728,-1186.65 908.728,-994.654 "/>
<path fill="none" stroke="black" d="M908.728,-994.654C908.728,-988.654 914.728,-982.654 920.728,-982.654"/>
<text text-anchor="middle" x="961.442" y="-1180.65" font-family="Times,serif" font-size="14.00">UsersController</text>
<polyline fill="none" stroke="black" points="908.728,-1173.85 1014.16,-1173.85 "/>
<text text-anchor="start" x="916.728" y="-1155.85" font-family="Times,serif" font-size="14.00">create</text>
<text text-anchor="start" x="916.728" y="-1139.05" font-family="Times,serif" font-size="14.00">destroy</text>
<text text-anchor="start" x="916.728" y="-1122.25" font-family="Times,serif" font-size="14.00">edit</text>
<text text-anchor="start" x="916.728" y="-1105.45" font-family="Times,serif" font-size="14.00">index</text>
<text text-anchor="start" x="916.728" y="-1088.65" font-family="Times,serif" font-size="14.00">new</text>
<text text-anchor="start" x="916.728" y="-1071.85" font-family="Times,serif" font-size="14.00">show</text>
<text text-anchor="start" x="916.728" y="-1055.05" font-family="Times,serif" font-size="14.00">update</text>
<text text-anchor="start" x="916.728" y="-1038.25" font-family="Times,serif" font-size="14.00">user_params</text>
<polyline fill="none" stroke="black" points="908.728,-1031.45 1014.16,-1031.45 "/>
<polyline fill="none" stroke="black" points="908.728,-1007.45 1014.16,-1007.45 "/>
<text text-anchor="start" x="916.728" y="-989.454" font-family="Times,serif" font-size="14.00">_layout</text>
</g>
<!-- ApplicationController&#45;&gt;UsersController -->
<g id="edge26" class="edge"><title>ApplicationController&#45;&gt;UsersController</title>
<path fill="none" stroke="black" d="M665.41,-731.78C736.359,-817.79 844.609,-949.019 908.672,-1026.68"/>
</g>
<!-- VehiclesController -->
<g id="node16" class="node"><title>VehiclesController</title>
<polyline fill="none" stroke="black" points="484.212,-1127.96 581.185,-1127.96 "/>
<path fill="none" stroke="black" d="M581.185,-1127.96C587.185,-1127.96 593.185,-1133.96 593.185,-1139.96"/>
<polyline fill="none" stroke="black" points="593.185,-1139.96 593.185,-1264.76 "/>
<path fill="none" stroke="black" d="M593.185,-1264.76C593.185,-1270.76 587.185,-1276.76 581.185,-1276.76"/>
<polyline fill="none" stroke="black" points="581.185,-1276.76 484.212,-1276.76 "/>
<path fill="none" stroke="black" d="M484.212,-1276.76C478.212,-1276.76 472.212,-1270.76 472.212,-1264.76"/>
<polyline fill="none" stroke="black" points="472.212,-1264.76 472.212,-1139.96 "/>
<path fill="none" stroke="black" d="M472.212,-1139.96C472.212,-1133.96 478.212,-1127.96 484.212,-1127.96"/>
<text text-anchor="middle" x="532.698" y="-1258.76" font-family="Times,serif" font-size="14.00">VehiclesController</text>
<polyline fill="none" stroke="black" points="472.212,-1251.96 593.185,-1251.96 "/>
<text text-anchor="start" x="480.212" y="-1233.96" font-family="Times,serif" font-size="14.00">edit</text>
<text text-anchor="start" x="480.212" y="-1217.16" font-family="Times,serif" font-size="14.00">index</text>
<text text-anchor="start" x="480.212" y="-1200.36" font-family="Times,serif" font-size="14.00">new</text>
<text text-anchor="start" x="480.212" y="-1183.56" font-family="Times,serif" font-size="14.00">show</text>
<polyline fill="none" stroke="black" points="472.212,-1176.76 593.185,-1176.76 "/>
<polyline fill="none" stroke="black" points="472.212,-1152.76 593.185,-1152.76 "/>
<text text-anchor="start" x="480.212" y="-1134.76" font-family="Times,serif" font-size="14.00">_layout</text>
</g>
<!-- ApplicationController&#45;&gt;VehiclesController -->
<g id="edge28" class="edge"><title>ApplicationController&#45;&gt;VehiclesController</title>
<path fill="none" stroke="black" d="M584.238,-746.634C571.865,-856.032 552.279,-1029.22 541.154,-1127.59"/>
</g>
<!-- WorkingHoursController -->
<g id="node17" class="node"><title>WorkingHoursController</title>
<polyline fill="none" stroke="black" points="846.882,-239.641 979.299,-239.641 "/>
<path fill="none" stroke="black" d="M979.299,-239.641C985.299,-239.641 991.299,-245.641 991.299,-251.641"/>
<polyline fill="none" stroke="black" points="991.299,-251.641 991.299,-376.441 "/>
<path fill="none" stroke="black" d="M991.299,-376.441C991.299,-382.441 985.299,-388.441 979.299,-388.441"/>
<polyline fill="none" stroke="black" points="979.299,-388.441 846.882,-388.441 "/>
<path fill="none" stroke="black" d="M846.882,-388.441C840.882,-388.441 834.882,-382.441 834.882,-376.441"/>
<polyline fill="none" stroke="black" points="834.882,-376.441 834.882,-251.641 "/>
<path fill="none" stroke="black" d="M834.882,-251.641C834.882,-245.641 840.882,-239.641 846.882,-239.641"/>
<text text-anchor="middle" x="913.091" y="-370.441" font-family="Times,serif" font-size="14.00">WorkingHoursController</text>
<polyline fill="none" stroke="black" points="834.882,-363.641 991.299,-363.641 "/>
<text text-anchor="start" x="842.882" y="-345.641" font-family="Times,serif" font-size="14.00">edit</text>
<text text-anchor="start" x="842.882" y="-328.841" font-family="Times,serif" font-size="14.00">index</text>
<text text-anchor="start" x="842.882" y="-312.041" font-family="Times,serif" font-size="14.00">new</text>
<text text-anchor="start" x="842.882" y="-295.241" font-family="Times,serif" font-size="14.00">show</text>
<polyline fill="none" stroke="black" points="834.882,-288.441 991.299,-288.441 "/>
<polyline fill="none" stroke="black" points="834.882,-264.441 991.299,-264.441 "/>
<text text-anchor="start" x="842.882" y="-246.441" font-family="Times,serif" font-size="14.00">_layout</text>
</g>
<!-- ApplicationController&#45;&gt;WorkingHoursController -->
<g id="edge30" class="edge"><title>ApplicationController&#45;&gt;WorkingHoursController</title>
<path fill="none" stroke="black" d="M665.591,-573.544C718.017,-518.575 789.436,-443.692 842.083,-388.493"/>
</g>
</g>
</svg>
