<?xml version="1.0" encoding="UTF-8" standalone="no"?>
<!DOCTYPE svg PUBLIC "-//W3C//DTD SVG 1.1//EN"
 "http://www.w3.org/Graphics/SVG/1.1/DTD/svg11.dtd">
<!-- Generated by graphviz version 2.28.0 (20131030.2054)
 -->
<!-- Title: models_diagram Pages: 1 -->
<svg width="1766pt" height="258pt"
 viewBox="0.00 0.00 1766.00 258.00" xmlns="http://www.w3.org/2000/svg" xmlns:xlink="http://www.w3.org/1999/xlink">
<g id="graph1" class="graph" transform="scale(1 1) rotate(0) translate(4 254)">
<title>models_diagram</title>
<polygon fill="white" stroke="white" points="-4,5 -4,-254 1763,-254 1763,5 -4,5"/>
<!-- _diagram_info -->
<g id="node1" class="node"><title>_diagram_info</title>
<text text-anchor="start" x="586.55" y="-233" font-family="Times,serif" font-size="13.00">Models diagram</text>
<text text-anchor="start" x="586.55" y="-217.4" font-family="Times,serif" font-size="13.00">Date: Oct 30 2013 &#45; 22:00</text>
<text text-anchor="start" x="586.55" y="-201.8" font-family="Times,serif" font-size="13.00">Migration version: 20131021172108</text>
<text text-anchor="start" x="586.55" y="-186.2" font-family="Times,serif" font-size="13.00">Generated by RailRoady 1.1.1</text>
<text text-anchor="start" x="586.55" y="-170.6" font-family="Times,serif" font-size="13.00">http://railroady.prestonlee.com</text>
</g>
<!-- Category -->
<g id="node2" class="node"><title>Category</title>
<ellipse fill="none" stroke="black" cx="77" cy="-108" rx="46.1519" ry="18"/>
<text text-anchor="middle" x="77" y="-102.4" font-family="Times,serif" font-size="14.00">Category</text>
</g>
<!-- Ckeditor::Asset -->
<g id="node3" class="node"><title>Ckeditor::Asset</title>
<ellipse fill="none" stroke="black" cx="213" cy="-108" rx="71.4843" ry="18"/>
<text text-anchor="middle" x="213" y="-102.4" font-family="Times,serif" font-size="14.00">Ckeditor::Asset</text>
</g>
<!-- Ckeditor::AttachmentFile -->
<g id="node4" class="node"><title>Ckeditor::AttachmentFile</title>
<ellipse fill="none" stroke="black" cx="110" cy="-18" rx="109.906" ry="18"/>
<text text-anchor="middle" x="110" y="-12.4" font-family="Times,serif" font-size="14.00">Ckeditor::AttachmentFile</text>
</g>
<!-- Ckeditor::Asset&#45;&gt;Ckeditor::AttachmentFile -->
<g id="edge6" class="edge"><title>Ckeditor::Asset&#45;&gt;Ckeditor::AttachmentFile</title>
<path fill="none" stroke="black" d="M193.626,-90.4479C175.328,-74.8144 148.021,-51.4839 129.637,-35.7771"/>
</g>
<!-- Ckeditor::Picture -->
<g id="node5" class="node"><title>Ckeditor::Picture</title>
<ellipse fill="none" stroke="black" cx="316" cy="-18" rx="77.3258" ry="18"/>
<text text-anchor="middle" x="316" y="-12.4" font-family="Times,serif" font-size="14.00">Ckeditor::Picture</text>
</g>
<!-- Ckeditor::Asset&#45;&gt;Ckeditor::Picture -->
<g id="edge8" class="edge"><title>Ckeditor::Asset&#45;&gt;Ckeditor::Picture</title>
<path fill="none" stroke="black" d="M232.374,-90.4479C250.788,-74.7149 278.327,-51.1863 296.713,-35.4779"/>
</g>
<!-- Client -->
<g id="node6" class="node"><title>Client</title>
<ellipse fill="none" stroke="black" cx="337" cy="-108" rx="34.4613" ry="18"/>
<text text-anchor="middle" x="337" y="-102.4" font-family="Times,serif" font-size="14.00">Client</text>
</g>
<!-- Image -->
<g id="node7" class="node"><title>Image</title>
<ellipse fill="none" stroke="black" cx="425" cy="-108" rx="35.2475" ry="18"/>
<text text-anchor="middle" x="425" y="-102.4" font-family="Times,serif" font-size="14.00">Image</text>
</g>
<!-- Network -->
<g id="node8" class="node"><title>Network</title>
<ellipse fill="none" stroke="black" cx="523" cy="-108" rx="44.2418" ry="18"/>
<text text-anchor="middle" x="523" y="-102.4" font-family="Times,serif" font-size="14.00">Network</text>
</g>
<!-- Order -->
<g id="node9" class="node"><title>Order</title>
<ellipse fill="none" stroke="black" cx="619" cy="-108" rx="33.3348" ry="18"/>
<text text-anchor="middle" x="619" y="-102.4" font-family="Times,serif" font-size="14.00">Order</text>
</g>
<!-- OrderPart -->
<g id="node10" class="node"><title>OrderPart</title>
<ellipse fill="none" stroke="black" cx="720" cy="-108" rx="49.169" ry="18"/>
<text text-anchor="middle" x="720" y="-102.4" font-family="Times,serif" font-size="14.00">OrderPart</text>
</g>
<!-- Page -->
<g id="node11" class="node"><title>Page</title>
<ellipse fill="none" stroke="black" cx="817" cy="-108" rx="29.216" ry="18"/>
<text text-anchor="middle" x="817" y="-102.4" font-family="Times,serif" font-size="14.00">Page</text>
</g>
<!-- ActsAsTaggableOn::Tagging -->
<g id="node32" class="node"><title>ActsAsTaggableOn::Tagging</title>
<ellipse fill="none" stroke="black" cx="684" cy="-18" rx="123.097" ry="18"/>
<text text-anchor="middle" x="684" y="-12.4" font-family="Times,serif" font-size="14.00">ActsAsTaggableOn::Tagging</text>
</g>
<!-- Page&#45;&gt;ActsAsTaggableOn::Tagging -->
<g id="edge24" class="edge"><title>Page&#45;&gt;ActsAsTaggableOn::Tagging</title>
<path fill="none" stroke="#b6b22d" d="M787.16,-93.1961C784.1,-92.0219 781.01,-90.9299 778,-90 737.131,-77.3756 710.727,-104.954 683.455,-72 677.573,-64.8921 676.382,-55.2218 677.11,-46.0866"/>
<ellipse fill="none" stroke="#b6b22d" cx="790.934" cy="-94.7316" rx="4.00002" ry="4.00002"/>
<polygon fill="#b6b22d" stroke="#b6b22d" points="677.114,-46.0545 683.049,-36.8334 677.857,-41.1099 678.599,-36.1653 678.599,-36.1653 678.599,-36.1653 677.857,-41.1099 674.149,-35.4972 677.114,-46.0545 677.114,-46.0545"/>
<text text-anchor="middle" x="719.772" y="-57.4" font-family="Times,serif" font-size="14.00">tag_taggings</text>
</g>
<!-- Page&#45;&gt;ActsAsTaggableOn::Tagging -->
<g id="edge20" class="edge"><title>Page&#45;&gt;ActsAsTaggableOn::Tagging</title>
<path fill="none" stroke="#3ef488" d="M796.911,-85.8097C786.295,-75.3762 772.657,-63.1148 759,-54 751.105,-48.7312 742.292,-43.8512 733.558,-39.51"/>
<ellipse fill="none" stroke="#3ef488" cx="799.966" cy="-88.8719" rx="4.00002" ry="4.00002"/>
<polygon fill="#3ef488" stroke="#3ef488" points="733.548,-39.5053 726.472,-31.1286 729.039,-37.3464 724.529,-35.1875 724.529,-35.1875 724.529,-35.1875 729.039,-37.3464 722.586,-39.2465 733.548,-39.5053 733.548,-39.5053"/>
<text text-anchor="middle" x="805.721" y="-57.4" font-family="Times,serif" font-size="14.00">taggings</text>
</g>
<!-- ActsAsTaggableOn::Tag -->
<g id="node34" class="node"><title>ActsAsTaggableOn::Tag</title>
<ellipse fill="none" stroke="black" cx="932" cy="-18" rx="106.344" ry="18"/>
<text text-anchor="middle" x="932" y="-12.4" font-family="Times,serif" font-size="14.00">ActsAsTaggableOn::Tag</text>
</g>
<!-- Page&#45;&gt;ActsAsTaggableOn::Tag -->
<g id="edge22" class="edge"><title>Page&#45;&gt;ActsAsTaggableOn::Tag</title>
<path fill="none" stroke="#3ee433" d="M831.063,-81.5926C837.305,-72.0161 845.338,-61.6108 854.572,-54 861.595,-48.2122 869.728,-43.1814 878.03,-38.8789"/>
<polygon fill="#3ee433" stroke="#3ee433" points="830.884,-81.8832 821.813,-88.0449 828.265,-86.1425 825.646,-90.4019 825.646,-90.4019 825.646,-90.4019 828.265,-86.1425 829.48,-92.7588 830.884,-81.8832 830.884,-81.8832"/>
<polygon fill="#3ee433" stroke="#3ee433" points="878.064,-38.8625 889.026,-38.5429 882.562,-36.6786 887.06,-34.4948 887.06,-34.4948 887.06,-34.4948 882.562,-36.6786 885.095,-30.4467 878.064,-38.8625 878.064,-38.8625"/>
<text text-anchor="middle" x="882.214" y="-57.4" font-family="Times,serif" font-size="14.00">base_tags</text>
</g>
<!-- Page&#45;&gt;ActsAsTaggableOn::Tag -->
<g id="edge26" class="edge"><title>Page&#45;&gt;ActsAsTaggableOn::Tag</title>
<path fill="none" stroke="#f4db4f" d="M849.248,-92.6952C851.524,-91.7619 853.791,-90.8547 856,-90 879.2,-81.0219 890.703,-88.8545 909,-72 916.477,-65.1129 921.638,-55.3727 925.146,-46.1176"/>
<polygon fill="#f4db4f" stroke="#f4db4f" points="849.179,-92.7243 838.216,-92.4636 844.572,-94.6671 839.965,-96.61 839.965,-96.61 839.965,-96.61 844.572,-94.6671 841.713,-100.756 849.179,-92.7243 849.179,-92.7243"/>
<polygon fill="#f4db4f" stroke="#f4db4f" points="925.21,-45.9227 932.609,-37.8292 926.772,-41.173 928.334,-36.4233 928.334,-36.4233 928.334,-36.4233 926.772,-41.173 924.059,-35.0173 925.21,-45.9227 925.21,-45.9227"/>
<text text-anchor="middle" x="933.276" y="-57.4" font-family="Times,serif" font-size="14.00">tags</text>
</g>
<!-- Part -->
<g id="node12" class="node"><title>Part</title>
<ellipse fill="none" stroke="black" cx="892" cy="-108" rx="27" ry="18"/>
<text text-anchor="middle" x="892" y="-102.4" font-family="Times,serif" font-size="14.00">Part</text>
</g>
<!-- PartProcedure -->
<g id="node13" class="node"><title>PartProcedure</title>
<ellipse fill="none" stroke="black" cx="1003" cy="-108" rx="65.6077" ry="18"/>
<text text-anchor="middle" x="1003" y="-102.4" font-family="Times,serif" font-size="14.00">PartProcedure</text>
</g>
<!-- Procedure -->
<g id="node14" class="node"><title>Procedure</title>
<ellipse fill="none" stroke="black" cx="1137" cy="-108" rx="50.2748" ry="18"/>
<text text-anchor="middle" x="1137" y="-102.4" font-family="Times,serif" font-size="14.00">Procedure</text>
</g>
<!-- Role -->
<g id="node15" class="node"><title>Role</title>
<ellipse fill="none" stroke="black" cx="1234" cy="-108" rx="28.9157" ry="18"/>
<text text-anchor="middle" x="1234" y="-102.4" font-family="Times,serif" font-size="14.00">Role</text>
</g>
<!-- User -->
<g id="node18" class="node"><title>User</title>
<ellipse fill="none" stroke="black" cx="1436" cy="-18" rx="28.9087" ry="18"/>
<text text-anchor="middle" x="1436" y="-12.4" font-family="Times,serif" font-size="14.00">User</text>
</g>
<!-- Role&#45;&gt;User -->
<g id="edge36" class="edge"><title>Role&#45;&gt;User</title>
<path fill="none" stroke="#a583aa" d="M1266.44,-92.8689C1304.02,-76.4968 1365.59,-49.6736 1403.29,-33.2508"/>
<polygon fill="#a583aa" stroke="#a583aa" points="1266.34,-92.9113 1255.37,-92.7798 1261.76,-94.9083 1257.17,-96.9053 1257.17,-96.9053 1257.17,-96.9053 1261.76,-94.9083 1258.97,-101.031 1266.34,-92.9113 1266.34,-92.9113"/>
<polygon fill="#a583aa" stroke="#a583aa" points="1403.62,-33.1061 1414.59,-33.2377 1408.2,-31.1091 1412.79,-29.1122 1412.79,-29.1122 1412.79,-29.1122 1408.2,-31.1091 1410.99,-24.9866 1403.62,-33.1061 1403.62,-33.1061"/>
</g>
<!-- Setting -->
<g id="node16" class="node"><title>Setting</title>
<ellipse fill="none" stroke="black" cx="1320" cy="-108" rx="38.0999" ry="18"/>
<text text-anchor="middle" x="1320" y="-102.4" font-family="Times,serif" font-size="14.00">Setting</text>
</g>
<!-- Statement -->
<g id="node17" class="node"><title>Statement</title>
<ellipse fill="none" stroke="black" cx="1426" cy="-108" rx="49.4817" ry="18"/>
<text text-anchor="middle" x="1426" y="-102.4" font-family="Times,serif" font-size="14.00">Statement</text>
</g>
<!-- Vehicle -->
<g id="node19" class="node"><title>Vehicle</title>
<ellipse fill="none" stroke="black" cx="1572" cy="-108" rx="39.4899" ry="18"/>
<text text-anchor="middle" x="1572" y="-102.4" font-family="Times,serif" font-size="14.00">Vehicle</text>
</g>
<!-- WorkingHour -->
<g id="node20" class="node"><title>WorkingHour</title>
<ellipse fill="none" stroke="black" cx="1694" cy="-108" rx="64.1633" ry="18"/>
<text text-anchor="middle" x="1694" y="-102.4" font-family="Times,serif" font-size="14.00">WorkingHour</text>
</g>
<!-- ActiveRecord::Base -->
<g id="node21" class="node"><title>ActiveRecord::Base</title>
<ellipse fill="none" stroke="black" cx="892" cy="-207" rx="88.2033" ry="18"/>
<text text-anchor="middle" x="892" y="-201.4" font-family="Times,serif" font-size="14.00">ActiveRecord::Base</text>
</g>
<!-- ActiveRecord::Base&#45;&gt;Category -->
<g id="edge2" class="edge"><title>ActiveRecord::Base&#45;&gt;Category</title>
<path fill="none" stroke="black" d="M862.037,-189.923C843.096,-180.589 817.784,-169.597 794,-164 722.282,-147.123 204.505,-139.086 132,-126 124.82,-124.704 117.263,-122.765 110.127,-120.655"/>
</g>
<!-- ActiveRecord::Base&#45;&gt;Ckeditor::Asset -->
<g id="edge4" class="edge"><title>ActiveRecord::Base&#45;&gt;Ckeditor::Asset</title>
<path fill="none" stroke="black" d="M861.568,-189.866C842.662,-180.634 817.552,-169.771 794,-164 766.889,-157.357 320.63,-129.965 293,-126 283.443,-124.628 273.318,-122.786 263.602,-120.82"/>
</g>
<!-- ActiveRecord::Base&#45;&gt;Client -->
<g id="edge10" class="edge"><title>ActiveRecord::Base&#45;&gt;Client</title>
<path fill="none" stroke="black" d="M861.534,-190.001C842.616,-180.818 817.505,-169.96 794,-164 704.662,-141.348 470.734,-147.032 381,-126 374.94,-124.58 368.601,-122.504 362.681,-120.288"/>
</g>
<!-- ActiveRecord::Base&#45;&gt;Image -->
<g id="edge12" class="edge"><title>ActiveRecord::Base&#45;&gt;Image</title>
<path fill="none" stroke="black" d="M861.046,-189.999C842.159,-180.935 817.251,-170.201 794,-164 723.742,-145.261 539.586,-143.464 469,-126 463.117,-124.545 456.959,-122.51 451.176,-120.353"/>
</g>
<!-- ActiveRecord::Base&#45;&gt;Network -->
<g id="edge14" class="edge"><title>ActiveRecord::Base&#45;&gt;Network</title>
<path fill="none" stroke="black" d="M860.035,-190.06C841.213,-181.246 816.713,-170.746 794,-164 699.721,-135.996 671.496,-149.52 576,-126 569.338,-124.359 562.295,-122.321 555.594,-120.232"/>
</g>
<!-- ActiveRecord::Base&#45;&gt;Order -->
<g id="edge16" class="edge"><title>ActiveRecord::Base&#45;&gt;Order</title>
<path fill="none" stroke="black" d="M857.948,-190.166C839.287,-181.806 815.619,-171.711 794,-164 736.499,-143.492 719.787,-145.69 662,-126 656.377,-124.084 650.412,-121.855 644.772,-119.655"/>
</g>
<!-- ActiveRecord::Base&#45;&gt;OrderPart -->
<g id="edge18" class="edge"><title>ActiveRecord::Base&#45;&gt;OrderPart</title>
<path fill="none" stroke="black" d="M863.211,-189.764C830.313,-171.212 776.974,-141.131 745.512,-123.388"/>
</g>
<!-- ActiveRecord::Base&#45;&gt;Page -->
<g id="edge28" class="edge"><title>ActiveRecord::Base&#45;&gt;Page</title>
<path fill="none" stroke="black" d="M878.936,-189.104C864.918,-170.975 842.832,-142.41 829.17,-124.74"/>
</g>
<!-- ActiveRecord::Base&#45;&gt;Part -->
<g id="edge30" class="edge"><title>ActiveRecord::Base&#45;&gt;Part</title>
<path fill="none" stroke="black" d="M892,-188.658C892,-171.002 892,-143.793 892,-126.192"/>
</g>
<!-- ActiveRecord::Base&#45;&gt;PartProcedure -->
<g id="edge32" class="edge"><title>ActiveRecord::Base&#45;&gt;PartProcedure</title>
<path fill="none" stroke="black" d="M911.082,-189.325C931.537,-171.45 963.809,-143.248 984.167,-125.457"/>
</g>
<!-- ActiveRecord::Base&#45;&gt;Procedure -->
<g id="edge34" class="edge"><title>ActiveRecord::Base&#45;&gt;Procedure</title>
<path fill="none" stroke="black" d="M930.551,-190.737C978.524,-171.744 1059.59,-139.646 1104.54,-121.85"/>
</g>
<!-- ActiveRecord::Base&#45;&gt;Role -->
<g id="edge38" class="edge"><title>ActiveRecord::Base&#45;&gt;Role</title>
<path fill="none" stroke="black" d="M950.85,-193.518C1012.72,-179.702 1112.49,-155.445 1196,-126 1201.18,-124.173 1206.63,-121.933 1211.74,-119.686"/>
</g>
<!-- ActiveRecord::Base&#45;&gt;Setting -->
<g id="edge40" class="edge"><title>ActiveRecord::Base&#45;&gt;Setting</title>
<path fill="none" stroke="black" d="M957.865,-194.881C1034.15,-181.37 1163.28,-156.549 1272,-126 1278.3,-124.23 1284.97,-122.063 1291.26,-119.876"/>
</g>
<!-- ActiveRecord::Base&#45;&gt;Statement -->
<g id="edge42" class="edge"><title>ActiveRecord::Base&#45;&gt;Statement</title>
<path fill="none" stroke="black" d="M964.119,-196.458C1057.63,-183.491 1225.52,-158.187 1367,-126 1374.38,-124.321 1382.2,-122.266 1389.66,-120.172"/>
</g>
<!-- ActiveRecord::Base&#45;&gt;User -->
<g id="edge44" class="edge"><title>ActiveRecord::Base&#45;&gt;User</title>
<path fill="none" stroke="black" d="M975.025,-200.758C1130.07,-190.118 1451.01,-163.752 1484,-126 1508.52,-97.9455 1473.46,-55.323 1451.46,-33.2961"/>
</g>
<!-- ActiveRecord::Base&#45;&gt;Vehicle -->
<g id="edge46" class="edge"><title>ActiveRecord::Base&#45;&gt;Vehicle</title>
<path fill="none" stroke="black" d="M978.263,-203.054C1126.03,-197.127 1421.02,-181.197 1518,-146 1531.25,-141.193 1544.33,-132.361 1554.3,-124.532"/>
</g>
<!-- ActiveRecord::Base&#45;&gt;WorkingHour -->
<g id="edge48" class="edge"><title>ActiveRecord::Base&#45;&gt;WorkingHour</title>
<path fill="none" stroke="black" d="M976.584,-201.716C1099.81,-194.658 1335.63,-178.057 1534,-146 1573.4,-139.632 1617.56,-129.163 1649.49,-120.984"/>
</g>
</g>
</svg>
